<?xml version="1.0" encoding="UTF-8"?>
<svg width="1200" height="800" viewBox="0 0 1200 800" fill="none" xmlns="http://www.w3.org/2000/svg" role="img" aria-labelledby="title desc">
  <title id="title">Ilustrasi Pembelajaran Farmasi</title>
  <desc id="desc">Ilustrasi bergaya vektor menunjukkan buku, kaca pembesar, dan botol obat untuk tema pembelajaran farmasi.</desc>
  <rect width="1200" height="800" rx="24" fill="#F3F4F6" />
  <g transform="translate(120 120) scale(0.7)">
    <rect x="50" y="130" width="440" height="260" rx="14" fill="#fff" stroke="#E6E7EE" />
    <rect x="80" y="160" width="380" height="28" rx="6" fill="#EEF2FF" />
    <rect x="80" y="200" width="320" height="18" rx="6" fill="#F8FAFC" />
    <rect x="80" y="230" width="360" height="18" rx="6" fill="#F8FAFC" />

    <g transform="translate(520,20)">
      <circle cx="120" cy="120" r="100" fill="#EEF2FF" />
      <rect x="90" y="60" width="60" height="120" rx="8" fill="#fff" stroke="#E6E7EE" />
      <path d="M75 200 L165 120" stroke="#D1D5DB" stroke-width="10" stroke-linecap="round" />
    </g>

    <g transform="translate(480,220)">
      <rect x="10" y="10" width="80" height="140" rx="10" fill="#fff" stroke="#E6E7EE" />
      <circle cx="50" cy="50" r="12" fill="#FDE68A" />
      <rect x="24" y="96" width="52" height="6" rx="3" fill="#F8FAFC" />
    </g>
  </g>

  <g transform="translate(80,560)">
    <circle cx="40" cy="40" r="32" fill="#4F46E5" opacity="0.12" />
    <circle cx="120" cy="20" r="16" fill="#06B6D4" opacity="0.12" />
  </g>
</svg>
